<?xml version="1.0" encoding="UTF-8"?>
<!DOCTYPE svg PUBLIC "-//W3C//DTD SVG 1.1//EN" "http://www.w3.org/Graphics/SVG/1.1/DTD/svg11.dtd">
<svg version="1.1" xmlns="http://www.w3.org/2000/svg" xmlns:xlink="http://www.w3.org/1999/xlink" x="0" y="0" width="70" height="70" viewBox="0, 0, 70, 70">
  <g id="Capa_1">
    <g>
      <g>
        <path d="M24.323,12.712 C24.795,12.594 25.289,12.654 25.772,12.641 C32.207,12.647 38.642,12.641 45.077,12.644 C45.525,12.629 46.022,12.758 46.28,13.14 C46.801,13.76 46.566,14.6 46.614,15.329 C46.56,16.033 46.763,16.792 46.436,17.453 C46.2,17.952 45.615,18.229 45.063,18.221 C38.353,18.225 31.644,18.217 24.934,18.224 C24.237,18.243 23.566,17.764 23.427,17.097 C23.331,16.514 23.405,15.919 23.384,15.331 C23.398,14.801 23.344,14.267 23.419,13.742 C23.532,13.294 23.847,12.848 24.323,12.712 z" fill="#FFFFFF"/>
        <path d="M24.323,12.712 C24.795,12.594 25.289,12.654 25.772,12.641 C32.207,12.647 38.642,12.641 45.077,12.644 C45.525,12.629 46.022,12.758 46.28,13.14 C46.801,13.76 46.566,14.6 46.614,15.329 C46.56,16.033 46.763,16.792 46.436,17.453 C46.2,17.952 45.615,18.229 45.063,18.221 C38.353,18.225 31.644,18.217 24.934,18.224 C24.237,18.243 23.566,17.764 23.427,17.097 C23.331,16.514 23.405,15.919 23.384,15.331 C23.398,14.801 23.344,14.267 23.419,13.742 C23.532,13.294 23.847,12.848 24.323,12.712 z" fill-opacity="0" stroke="#7B7B7B" stroke-width="0.25"/>
      </g>
      <g>
        <path d="M26.321,20.999 C28.248,21.007 30.176,21.005 32.103,20.999 C32.121,24.732 32.101,28.468 32.112,32.202 C32.109,32.466 32.129,32.733 32.088,32.995 C31.961,33.318 31.732,33.59 31.55,33.884 C30.113,36.114 28.677,38.345 27.232,40.572 C25.03,43.939 22.861,47.328 20.672,50.703 C20.437,51.009 20.415,51.505 20.794,51.714 C21.266,51.874 21.782,51.787 22.273,51.803 C30.722,51.799 39.171,51.8 47.621,51.802 C48.144,51.782 48.695,51.885 49.198,51.71 C49.626,51.488 49.542,50.949 49.29,50.629 C47.098,47.291 44.96,43.917 42.77,40.577 C41.196,38.137 39.624,35.696 38.039,33.263 C37.899,33.074 37.877,32.842 37.885,32.617 C37.899,28.745 37.877,24.871 37.897,20.999 C39.823,21.008 41.75,21.005 43.678,20.999 C43.73,21.903 43.688,22.809 43.699,23.714 C43.692,26.171 43.707,28.627 43.693,31.084 C43.658,31.551 44.036,31.895 44.256,32.275 C47.552,37.381 50.837,42.495 54.141,47.597 C54.646,48.374 55.061,49.221 55.219,50.131 C55.404,51.451 55.231,52.842 54.572,54.025 C53.759,55.601 52.192,56.783 50.424,57.201 C49.714,57.357 48.982,57.369 48.257,57.361 C39.242,57.362 30.227,57.359 21.212,57.363 C20.274,57.362 19.321,57.22 18.469,56.823 C16.148,55.862 14.616,53.444 14.716,51.018 C14.668,49.837 15.165,48.72 15.783,47.726 C19.218,42.384 22.664,37.048 26.11,31.712 C26.408,31.32 26.277,30.812 26.3,30.361 C26.316,27.24 26.272,24.119 26.321,20.999 z" fill="#FFFFFF"/>
        <path d="M26.321,20.999 C28.248,21.007 30.176,21.005 32.103,20.999 C32.121,24.732 32.101,28.468 32.112,32.202 C32.109,32.466 32.129,32.733 32.088,32.995 C31.961,33.318 31.732,33.59 31.55,33.884 C30.113,36.114 28.677,38.345 27.232,40.572 C25.03,43.939 22.861,47.328 20.672,50.703 C20.437,51.009 20.415,51.505 20.794,51.714 C21.266,51.874 21.782,51.787 22.273,51.803 C30.722,51.799 39.171,51.8 47.621,51.802 C48.144,51.782 48.695,51.885 49.198,51.71 C49.626,51.488 49.542,50.949 49.29,50.629 C47.098,47.291 44.96,43.917 42.77,40.577 C41.196,38.137 39.624,35.696 38.039,33.263 C37.899,33.074 37.877,32.842 37.885,32.617 C37.899,28.745 37.877,24.871 37.897,20.999 C39.823,21.008 41.75,21.005 43.678,20.999 C43.73,21.903 43.688,22.809 43.699,23.714 C43.692,26.171 43.707,28.627 43.693,31.084 C43.658,31.551 44.036,31.895 44.256,32.275 C47.552,37.381 50.837,42.495 54.141,47.597 C54.646,48.374 55.061,49.221 55.219,50.131 C55.404,51.451 55.231,52.842 54.572,54.025 C53.759,55.601 52.192,56.783 50.424,57.201 C49.714,57.357 48.982,57.369 48.257,57.361 C39.242,57.362 30.227,57.359 21.212,57.363 C20.274,57.362 19.321,57.22 18.469,56.823 C16.148,55.862 14.616,53.444 14.716,51.018 C14.668,49.837 15.165,48.72 15.783,47.726 C19.218,42.384 22.664,37.048 26.11,31.712 C26.408,31.32 26.277,30.812 26.3,30.361 C26.316,27.24 26.272,24.119 26.321,20.999 z" fill-opacity="0" stroke="#7B7B7B" stroke-width="0.25"/>
      </g>
    </g>
  </g>
</svg>
